<mxfile host="Electron" modified="2023-06-04T10:02:24.812Z" agent="Mozilla/5.0 (Windows NT 10.0; Win64; x64) AppleWebKit/537.36 (KHTML, like Gecko) draw.io/21.2.8 Chrome/112.0.5615.165 Electron/24.2.0 Safari/537.36" etag="E8E6i-LKj456UriOVy_o" version="21.2.8" type="device">
  <diagram name="Страница 1" id="Q0DBj2deqWQZ3XrtqF22">
    <mxGraphModel dx="1548" dy="894" grid="1" gridSize="10" guides="1" tooltips="1" connect="1" arrows="1" fold="1" page="1" pageScale="1" pageWidth="827" pageHeight="1169" math="0" shadow="0">
      <root>
        <mxCell id="0" />
        <mxCell id="1" parent="0" />
        <mxCell id="yxiZZxbSigDX1WBqPYT2-16" style="edgeStyle=orthogonalEdgeStyle;rounded=0;orthogonalLoop=1;jettySize=auto;html=1;exitX=0.5;exitY=1;exitDx=0;exitDy=0;entryX=0.5;entryY=0;entryDx=0;entryDy=0;" edge="1" parent="1" source="yxiZZxbSigDX1WBqPYT2-4" target="yxiZZxbSigDX1WBqPYT2-15">
          <mxGeometry relative="1" as="geometry" />
        </mxCell>
        <mxCell id="yxiZZxbSigDX1WBqPYT2-4" value="begin" style="rounded=1;whiteSpace=wrap;html=1;arcSize=50;" vertex="1" parent="1">
          <mxGeometry x="351" y="50" width="126" height="60" as="geometry" />
        </mxCell>
        <mxCell id="yxiZZxbSigDX1WBqPYT2-5" value="end" style="rounded=1;whiteSpace=wrap;html=1;arcSize=50;" vertex="1" parent="1">
          <mxGeometry x="750" y="1520" width="126" height="60" as="geometry" />
        </mxCell>
        <mxCell id="yxiZZxbSigDX1WBqPYT2-24" style="edgeStyle=orthogonalEdgeStyle;rounded=0;orthogonalLoop=1;jettySize=auto;html=1;" edge="1" parent="1" source="yxiZZxbSigDX1WBqPYT2-6">
          <mxGeometry relative="1" as="geometry">
            <mxPoint x="414" y="370" as="targetPoint" />
          </mxGeometry>
        </mxCell>
        <mxCell id="yxiZZxbSigDX1WBqPYT2-6" value="Введите слово для добавления в массив, либо нажмите ENTER чтобы завершить ввод&lt;br&gt;initArray[count] = Console.ReadLine();" style="shape=parallelogram;perimeter=parallelogramPerimeter;whiteSpace=wrap;html=1;fixedSize=1;" vertex="1" parent="1">
          <mxGeometry x="189" y="280" width="450" height="60" as="geometry" />
        </mxCell>
        <mxCell id="yxiZZxbSigDX1WBqPYT2-17" style="edgeStyle=orthogonalEdgeStyle;rounded=0;orthogonalLoop=1;jettySize=auto;html=1;" edge="1" parent="1" source="yxiZZxbSigDX1WBqPYT2-15" target="yxiZZxbSigDX1WBqPYT2-6">
          <mxGeometry relative="1" as="geometry" />
        </mxCell>
        <mxCell id="yxiZZxbSigDX1WBqPYT2-15" value="string[] initArray = new string[10];&lt;br&gt;int count = 0;" style="rounded=0;whiteSpace=wrap;html=1;" vertex="1" parent="1">
          <mxGeometry x="303" y="150" width="221" height="90" as="geometry" />
        </mxCell>
        <mxCell id="yxiZZxbSigDX1WBqPYT2-21" value="FALSE" style="edgeStyle=orthogonalEdgeStyle;rounded=0;orthogonalLoop=1;jettySize=auto;html=1;" edge="1" parent="1" source="yxiZZxbSigDX1WBqPYT2-20">
          <mxGeometry relative="1" as="geometry">
            <mxPoint x="414" y="580" as="targetPoint" />
          </mxGeometry>
        </mxCell>
        <mxCell id="yxiZZxbSigDX1WBqPYT2-30" value="TRUE" style="edgeStyle=orthogonalEdgeStyle;rounded=0;orthogonalLoop=1;jettySize=auto;html=1;entryX=0;entryY=0.5;entryDx=0;entryDy=0;" edge="1" parent="1" source="yxiZZxbSigDX1WBqPYT2-20" target="yxiZZxbSigDX1WBqPYT2-34">
          <mxGeometry relative="1" as="geometry">
            <mxPoint x="610" y="500" as="targetPoint" />
          </mxGeometry>
        </mxCell>
        <mxCell id="yxiZZxbSigDX1WBqPYT2-20" value="if(initArray[count].IsEmpty)" style="rhombus;whiteSpace=wrap;html=1;" vertex="1" parent="1">
          <mxGeometry x="327" y="460" width="174" height="80" as="geometry" />
        </mxCell>
        <mxCell id="yxiZZxbSigDX1WBqPYT2-28" value="TRUE" style="edgeStyle=orthogonalEdgeStyle;rounded=0;orthogonalLoop=1;jettySize=auto;html=1;entryX=0.5;entryY=0;entryDx=0;entryDy=0;" edge="1" parent="1" source="yxiZZxbSigDX1WBqPYT2-25" target="yxiZZxbSigDX1WBqPYT2-20">
          <mxGeometry relative="1" as="geometry" />
        </mxCell>
        <mxCell id="yxiZZxbSigDX1WBqPYT2-31" value="FALSE" style="edgeStyle=orthogonalEdgeStyle;rounded=0;orthogonalLoop=1;jettySize=auto;html=1;entryX=0.5;entryY=0;entryDx=0;entryDy=0;" edge="1" parent="1" source="yxiZZxbSigDX1WBqPYT2-25" target="yxiZZxbSigDX1WBqPYT2-34">
          <mxGeometry relative="1" as="geometry">
            <mxPoint x="720" y="400" as="targetPoint" />
          </mxGeometry>
        </mxCell>
        <mxCell id="yxiZZxbSigDX1WBqPYT2-25" value="count&amp;lt;initArray.Length" style="rhombus;whiteSpace=wrap;html=1;" vertex="1" parent="1">
          <mxGeometry x="330" y="370" width="167" height="60" as="geometry" />
        </mxCell>
        <mxCell id="yxiZZxbSigDX1WBqPYT2-33" style="edgeStyle=orthogonalEdgeStyle;rounded=0;orthogonalLoop=1;jettySize=auto;html=1;entryX=0;entryY=0.5;entryDx=0;entryDy=0;" edge="1" parent="1" source="yxiZZxbSigDX1WBqPYT2-32" target="yxiZZxbSigDX1WBqPYT2-25">
          <mxGeometry relative="1" as="geometry">
            <Array as="points">
              <mxPoint x="230" y="610" />
              <mxPoint x="230" y="400" />
            </Array>
          </mxGeometry>
        </mxCell>
        <mxCell id="yxiZZxbSigDX1WBqPYT2-32" value="count++;" style="rounded=0;whiteSpace=wrap;html=1;" vertex="1" parent="1">
          <mxGeometry x="354" y="580" width="120" height="60" as="geometry" />
        </mxCell>
        <mxCell id="yxiZZxbSigDX1WBqPYT2-36" style="edgeStyle=orthogonalEdgeStyle;rounded=0;orthogonalLoop=1;jettySize=auto;html=1;entryX=1;entryY=0.5;entryDx=0;entryDy=0;" edge="1" parent="1" source="yxiZZxbSigDX1WBqPYT2-34" target="yxiZZxbSigDX1WBqPYT2-35">
          <mxGeometry relative="1" as="geometry">
            <Array as="points">
              <mxPoint x="680" y="750" />
            </Array>
          </mxGeometry>
        </mxCell>
        <mxCell id="yxiZZxbSigDX1WBqPYT2-34" value="string[] actualArray = new string[count];&lt;br&gt;count =0;" style="rounded=0;whiteSpace=wrap;html=1;" vertex="1" parent="1">
          <mxGeometry x="570" y="470" width="210" height="60" as="geometry" />
        </mxCell>
        <mxCell id="yxiZZxbSigDX1WBqPYT2-42" value="TRUE" style="edgeStyle=orthogonalEdgeStyle;rounded=0;orthogonalLoop=1;jettySize=auto;html=1;" edge="1" parent="1" source="yxiZZxbSigDX1WBqPYT2-35" target="yxiZZxbSigDX1WBqPYT2-38">
          <mxGeometry relative="1" as="geometry" />
        </mxCell>
        <mxCell id="yxiZZxbSigDX1WBqPYT2-43" value="FALSE" style="edgeStyle=orthogonalEdgeStyle;rounded=0;orthogonalLoop=1;jettySize=auto;html=1;" edge="1" parent="1" source="yxiZZxbSigDX1WBqPYT2-35">
          <mxGeometry relative="1" as="geometry">
            <mxPoint x="414" y="850" as="targetPoint" />
          </mxGeometry>
        </mxCell>
        <mxCell id="yxiZZxbSigDX1WBqPYT2-35" value="count&amp;lt; actualArray.Length" style="rhombus;whiteSpace=wrap;html=1;" vertex="1" parent="1">
          <mxGeometry x="327" y="710" width="174" height="80" as="geometry" />
        </mxCell>
        <mxCell id="yxiZZxbSigDX1WBqPYT2-39" style="edgeStyle=orthogonalEdgeStyle;rounded=0;orthogonalLoop=1;jettySize=auto;html=1;entryX=0.5;entryY=1;entryDx=0;entryDy=0;" edge="1" parent="1" source="yxiZZxbSigDX1WBqPYT2-38" target="yxiZZxbSigDX1WBqPYT2-40">
          <mxGeometry relative="1" as="geometry">
            <mxPoint x="230" y="900" as="targetPoint" />
          </mxGeometry>
        </mxCell>
        <mxCell id="yxiZZxbSigDX1WBqPYT2-38" value="actualArray[count] = initArray[count];" style="rounded=0;whiteSpace=wrap;html=1;" vertex="1" parent="1">
          <mxGeometry x="170" y="720" width="120" height="60" as="geometry" />
        </mxCell>
        <mxCell id="yxiZZxbSigDX1WBqPYT2-41" value="" style="edgeStyle=orthogonalEdgeStyle;rounded=0;orthogonalLoop=1;jettySize=auto;html=1;" edge="1" parent="1" source="yxiZZxbSigDX1WBqPYT2-40" target="yxiZZxbSigDX1WBqPYT2-35">
          <mxGeometry relative="1" as="geometry" />
        </mxCell>
        <mxCell id="yxiZZxbSigDX1WBqPYT2-40" value="count++;" style="rounded=0;whiteSpace=wrap;html=1;" vertex="1" parent="1">
          <mxGeometry x="170" y="640" width="120" height="60" as="geometry" />
        </mxCell>
        <mxCell id="yxiZZxbSigDX1WBqPYT2-58" style="edgeStyle=orthogonalEdgeStyle;rounded=0;orthogonalLoop=1;jettySize=auto;html=1;exitX=0.5;exitY=1;exitDx=0;exitDy=0;" edge="1" parent="1" source="yxiZZxbSigDX1WBqPYT2-44" target="yxiZZxbSigDX1WBqPYT2-57">
          <mxGeometry relative="1" as="geometry" />
        </mxCell>
        <mxCell id="yxiZZxbSigDX1WBqPYT2-44" value="count = 0;&lt;br&gt;int shortCount = 0;&lt;br&gt;string elem = String.Empty;" style="rounded=0;whiteSpace=wrap;html=1;" vertex="1" parent="1">
          <mxGeometry x="321" y="850" width="186" height="60" as="geometry" />
        </mxCell>
        <mxCell id="yxiZZxbSigDX1WBqPYT2-68" style="edgeStyle=orthogonalEdgeStyle;rounded=0;orthogonalLoop=1;jettySize=auto;html=1;exitX=0.5;exitY=1;exitDx=0;exitDy=0;entryX=0.5;entryY=0;entryDx=0;entryDy=0;" edge="1" parent="1" source="yxiZZxbSigDX1WBqPYT2-52" target="yxiZZxbSigDX1WBqPYT2-54">
          <mxGeometry relative="1" as="geometry" />
        </mxCell>
        <mxCell id="yxiZZxbSigDX1WBqPYT2-52" value="elem = actualArray[count];" style="rounded=0;whiteSpace=wrap;html=1;" vertex="1" parent="1">
          <mxGeometry x="332" y="1070" width="164" height="60" as="geometry" />
        </mxCell>
        <mxCell id="yxiZZxbSigDX1WBqPYT2-56" value="FALSE" style="edgeStyle=orthogonalEdgeStyle;rounded=0;orthogonalLoop=1;jettySize=auto;html=1;" edge="1" parent="1" source="yxiZZxbSigDX1WBqPYT2-54">
          <mxGeometry relative="1" as="geometry">
            <mxPoint x="200" y="1120" as="targetPoint" />
          </mxGeometry>
        </mxCell>
        <mxCell id="yxiZZxbSigDX1WBqPYT2-63" value="TRUE" style="edgeStyle=orthogonalEdgeStyle;rounded=0;orthogonalLoop=1;jettySize=auto;html=1;" edge="1" parent="1" source="yxiZZxbSigDX1WBqPYT2-54" target="yxiZZxbSigDX1WBqPYT2-62">
          <mxGeometry relative="1" as="geometry">
            <Array as="points">
              <mxPoint x="414" y="1240" />
              <mxPoint x="414" y="1240" />
            </Array>
          </mxGeometry>
        </mxCell>
        <mxCell id="yxiZZxbSigDX1WBqPYT2-54" value="elem.Length&amp;lt;4" style="rhombus;whiteSpace=wrap;html=1;" vertex="1" parent="1">
          <mxGeometry x="343" y="1149" width="144" height="80" as="geometry" />
        </mxCell>
        <mxCell id="yxiZZxbSigDX1WBqPYT2-61" value="TRUE" style="edgeStyle=orthogonalEdgeStyle;rounded=0;orthogonalLoop=1;jettySize=auto;html=1;entryX=0.5;entryY=0;entryDx=0;entryDy=0;" edge="1" parent="1" source="yxiZZxbSigDX1WBqPYT2-57" target="yxiZZxbSigDX1WBqPYT2-52">
          <mxGeometry relative="1" as="geometry" />
        </mxCell>
        <mxCell id="yxiZZxbSigDX1WBqPYT2-67" value="FALSE" style="edgeStyle=orthogonalEdgeStyle;rounded=0;orthogonalLoop=1;jettySize=auto;html=1;" edge="1" parent="1" source="yxiZZxbSigDX1WBqPYT2-57">
          <mxGeometry relative="1" as="geometry">
            <mxPoint x="630" y="980" as="targetPoint" />
          </mxGeometry>
        </mxCell>
        <mxCell id="yxiZZxbSigDX1WBqPYT2-57" value="count&amp;lt;actualArray.Length" style="rhombus;whiteSpace=wrap;html=1;" vertex="1" parent="1">
          <mxGeometry x="327" y="940" width="174" height="80" as="geometry" />
        </mxCell>
        <mxCell id="yxiZZxbSigDX1WBqPYT2-64" style="edgeStyle=orthogonalEdgeStyle;rounded=0;orthogonalLoop=1;jettySize=auto;html=1;" edge="1" parent="1" source="yxiZZxbSigDX1WBqPYT2-62">
          <mxGeometry relative="1" as="geometry">
            <mxPoint x="200" y="1190" as="targetPoint" />
          </mxGeometry>
        </mxCell>
        <mxCell id="yxiZZxbSigDX1WBqPYT2-62" value="shortCount++;" style="rounded=0;whiteSpace=wrap;html=1;" vertex="1" parent="1">
          <mxGeometry x="354" y="1260" width="120" height="60" as="geometry" />
        </mxCell>
        <mxCell id="yxiZZxbSigDX1WBqPYT2-66" style="edgeStyle=orthogonalEdgeStyle;rounded=0;orthogonalLoop=1;jettySize=auto;html=1;entryX=0;entryY=0.5;entryDx=0;entryDy=0;" edge="1" parent="1" source="yxiZZxbSigDX1WBqPYT2-65" target="yxiZZxbSigDX1WBqPYT2-57">
          <mxGeometry relative="1" as="geometry">
            <Array as="points">
              <mxPoint x="200" y="980" />
            </Array>
          </mxGeometry>
        </mxCell>
        <mxCell id="yxiZZxbSigDX1WBqPYT2-65" value="count++;" style="rounded=0;whiteSpace=wrap;html=1;" vertex="1" parent="1">
          <mxGeometry x="140" y="1060" width="120" height="60" as="geometry" />
        </mxCell>
        <mxCell id="yxiZZxbSigDX1WBqPYT2-92" style="edgeStyle=orthogonalEdgeStyle;rounded=0;orthogonalLoop=1;jettySize=auto;html=1;entryX=0.5;entryY=0;entryDx=0;entryDy=0;" edge="1" parent="1" source="yxiZZxbSigDX1WBqPYT2-69" target="yxiZZxbSigDX1WBqPYT2-87">
          <mxGeometry relative="1" as="geometry">
            <Array as="points">
              <mxPoint x="775" y="980" />
            </Array>
          </mxGeometry>
        </mxCell>
        <mxCell id="yxiZZxbSigDX1WBqPYT2-69" value="string[] result = new string[shortCount];" style="rounded=0;whiteSpace=wrap;html=1;" vertex="1" parent="1">
          <mxGeometry x="630" y="950" width="120" height="60" as="geometry" />
        </mxCell>
        <mxCell id="yxiZZxbSigDX1WBqPYT2-71" style="edgeStyle=orthogonalEdgeStyle;rounded=0;orthogonalLoop=1;jettySize=auto;html=1;exitX=0.5;exitY=1;exitDx=0;exitDy=0;entryX=0.5;entryY=0;entryDx=0;entryDy=0;" edge="1" parent="1" source="yxiZZxbSigDX1WBqPYT2-72" target="yxiZZxbSigDX1WBqPYT2-75">
          <mxGeometry relative="1" as="geometry" />
        </mxCell>
        <mxCell id="yxiZZxbSigDX1WBqPYT2-72" value="elem = actualArray[count];" style="rounded=0;whiteSpace=wrap;html=1;" vertex="1" parent="1">
          <mxGeometry x="332" y="1640" width="164" height="60" as="geometry" />
        </mxCell>
        <mxCell id="yxiZZxbSigDX1WBqPYT2-73" value="FALSE" style="edgeStyle=orthogonalEdgeStyle;rounded=0;orthogonalLoop=1;jettySize=auto;html=1;" edge="1" parent="1" source="yxiZZxbSigDX1WBqPYT2-75">
          <mxGeometry relative="1" as="geometry">
            <mxPoint x="200" y="1690" as="targetPoint" />
          </mxGeometry>
        </mxCell>
        <mxCell id="yxiZZxbSigDX1WBqPYT2-74" value="TRUE" style="edgeStyle=orthogonalEdgeStyle;rounded=0;orthogonalLoop=1;jettySize=auto;html=1;" edge="1" parent="1" source="yxiZZxbSigDX1WBqPYT2-75" target="yxiZZxbSigDX1WBqPYT2-79">
          <mxGeometry relative="1" as="geometry">
            <Array as="points">
              <mxPoint x="414" y="1810" />
              <mxPoint x="414" y="1810" />
            </Array>
          </mxGeometry>
        </mxCell>
        <mxCell id="yxiZZxbSigDX1WBqPYT2-75" value="elem.Length&amp;lt;4" style="rhombus;whiteSpace=wrap;html=1;" vertex="1" parent="1">
          <mxGeometry x="343" y="1719" width="144" height="80" as="geometry" />
        </mxCell>
        <mxCell id="yxiZZxbSigDX1WBqPYT2-76" value="TRUE" style="edgeStyle=orthogonalEdgeStyle;rounded=0;orthogonalLoop=1;jettySize=auto;html=1;entryX=0.5;entryY=0;entryDx=0;entryDy=0;" edge="1" parent="1" source="yxiZZxbSigDX1WBqPYT2-77" target="yxiZZxbSigDX1WBqPYT2-72">
          <mxGeometry relative="1" as="geometry" />
        </mxCell>
        <mxCell id="yxiZZxbSigDX1WBqPYT2-84" value="FALSE" style="edgeStyle=orthogonalEdgeStyle;rounded=0;orthogonalLoop=1;jettySize=auto;html=1;entryX=0;entryY=0.5;entryDx=0;entryDy=0;" edge="1" parent="1" source="yxiZZxbSigDX1WBqPYT2-77" target="yxiZZxbSigDX1WBqPYT2-85">
          <mxGeometry relative="1" as="geometry">
            <mxPoint x="590" y="1550" as="targetPoint" />
          </mxGeometry>
        </mxCell>
        <mxCell id="yxiZZxbSigDX1WBqPYT2-77" value="count&amp;lt;actualArray.Length" style="rhombus;whiteSpace=wrap;html=1;" vertex="1" parent="1">
          <mxGeometry x="327" y="1510" width="174" height="80" as="geometry" />
        </mxCell>
        <mxCell id="yxiZZxbSigDX1WBqPYT2-78" style="edgeStyle=orthogonalEdgeStyle;rounded=0;orthogonalLoop=1;jettySize=auto;html=1;" edge="1" parent="1" source="yxiZZxbSigDX1WBqPYT2-79">
          <mxGeometry relative="1" as="geometry">
            <mxPoint x="200" y="1760" as="targetPoint" />
          </mxGeometry>
        </mxCell>
        <mxCell id="yxiZZxbSigDX1WBqPYT2-79" value="result[shortCount] = elem;&lt;br&gt;shortCount++;" style="rounded=0;whiteSpace=wrap;html=1;" vertex="1" parent="1">
          <mxGeometry x="312" y="1830" width="184" height="60" as="geometry" />
        </mxCell>
        <mxCell id="yxiZZxbSigDX1WBqPYT2-80" style="edgeStyle=orthogonalEdgeStyle;rounded=0;orthogonalLoop=1;jettySize=auto;html=1;entryX=0;entryY=0.5;entryDx=0;entryDy=0;" edge="1" parent="1" source="yxiZZxbSigDX1WBqPYT2-81" target="yxiZZxbSigDX1WBqPYT2-77">
          <mxGeometry relative="1" as="geometry">
            <Array as="points">
              <mxPoint x="200" y="1550" />
            </Array>
          </mxGeometry>
        </mxCell>
        <mxCell id="yxiZZxbSigDX1WBqPYT2-81" value="count++;" style="rounded=0;whiteSpace=wrap;html=1;" vertex="1" parent="1">
          <mxGeometry x="140" y="1630" width="120" height="60" as="geometry" />
        </mxCell>
        <mxCell id="yxiZZxbSigDX1WBqPYT2-83" style="edgeStyle=orthogonalEdgeStyle;rounded=0;orthogonalLoop=1;jettySize=auto;html=1;entryX=0.5;entryY=0;entryDx=0;entryDy=0;" edge="1" parent="1" source="yxiZZxbSigDX1WBqPYT2-82" target="yxiZZxbSigDX1WBqPYT2-77">
          <mxGeometry relative="1" as="geometry" />
        </mxCell>
        <mxCell id="yxiZZxbSigDX1WBqPYT2-82" value="count = 0;&lt;br&gt;shortCount = 0;&lt;br&gt;elem = String.Empty;" style="rounded=0;whiteSpace=wrap;html=1;" vertex="1" parent="1">
          <mxGeometry x="321" y="1370" width="186" height="60" as="geometry" />
        </mxCell>
        <mxCell id="yxiZZxbSigDX1WBqPYT2-86" style="edgeStyle=orthogonalEdgeStyle;rounded=0;orthogonalLoop=1;jettySize=auto;html=1;entryX=0;entryY=0.5;entryDx=0;entryDy=0;" edge="1" parent="1" source="yxiZZxbSigDX1WBqPYT2-85" target="yxiZZxbSigDX1WBqPYT2-5">
          <mxGeometry relative="1" as="geometry" />
        </mxCell>
        <mxCell id="yxiZZxbSigDX1WBqPYT2-85" value="return result;" style="shape=parallelogram;perimeter=parallelogramPerimeter;whiteSpace=wrap;html=1;fixedSize=1;" vertex="1" parent="1">
          <mxGeometry x="590" y="1520" width="120" height="60" as="geometry" />
        </mxCell>
        <mxCell id="yxiZZxbSigDX1WBqPYT2-91" value="TRUE" style="edgeStyle=orthogonalEdgeStyle;rounded=0;orthogonalLoop=1;jettySize=auto;html=1;entryX=0.5;entryY=0;entryDx=0;entryDy=0;" edge="1" parent="1" source="yxiZZxbSigDX1WBqPYT2-87" target="yxiZZxbSigDX1WBqPYT2-82">
          <mxGeometry relative="1" as="geometry" />
        </mxCell>
        <mxCell id="yxiZZxbSigDX1WBqPYT2-93" value="FALSE" style="edgeStyle=orthogonalEdgeStyle;rounded=0;orthogonalLoop=1;jettySize=auto;html=1;entryX=0.5;entryY=0;entryDx=0;entryDy=0;" edge="1" parent="1" source="yxiZZxbSigDX1WBqPYT2-87" target="yxiZZxbSigDX1WBqPYT2-85">
          <mxGeometry relative="1" as="geometry" />
        </mxCell>
        <mxCell id="yxiZZxbSigDX1WBqPYT2-87" value="result.Length&amp;gt;0" style="rhombus;whiteSpace=wrap;html=1;" vertex="1" parent="1">
          <mxGeometry x="690" y="1310" width="170" height="80" as="geometry" />
        </mxCell>
      </root>
    </mxGraphModel>
  </diagram>
</mxfile>
